<svg width="27" height="27" viewBox="0 0 27 27" fill="none" xmlns="http://www.w3.org/2000/svg">
<path d="M18.81 4.23L22.815 8.235C23.715 9.09 23.715 10.53 22.815 11.385L12.375 21.78V7.47L15.615 4.185C15.8271 3.97703 16.0783 3.81312 16.3541 3.70274C16.6299 3.59235 16.9248 3.53768 17.2219 3.54186C17.5189 3.54604 17.8122 3.60901 18.0848 3.72711C18.3573 3.84522 18.6038 4.01614 18.81 4.23ZM7.875 0H2.25C1.65326 0 1.08097 0.237053 0.65901 0.65901C0.237053 1.08097 0 1.65326 0 2.25V21.96C-9.86251e-09 22.6219 0.130363 23.2772 0.383647 23.8887C0.636931 24.5002 1.00817 25.0558 1.47618 25.5238C1.94419 25.9918 2.49979 26.3631 3.11128 26.6164C3.72276 26.8696 4.37814 27 5.04 27C5.70186 27 6.35724 26.8696 6.96872 26.6164C7.5802 26.3631 8.13581 25.9918 8.60382 25.5238C9.07182 25.0558 9.44307 24.5002 9.69635 23.8887C9.94964 23.2772 10.08 22.6219 10.08 21.96V2.25C10.125 0.99 9.09 0 7.875 0ZM5.04 24.21C3.78 24.21 2.79 23.22 2.79 21.96C2.79 20.7 3.78 19.71 5.04 19.71C6.3 19.71 7.29 20.7 7.29 21.96C7.29 23.22 6.3 24.21 5.04 24.21ZM24.75 16.875H20.79L18.09 19.575H24.3L24.255 24.3H13.41L10.71 27H24.75C25.3467 27 25.919 26.7629 26.341 26.341C26.7629 25.919 27 25.3467 27 24.75V19.125C27 18.5283 26.7629 17.956 26.341 17.534C25.919 17.1121 25.3467 16.875 24.75 16.875Z" fill="white"/>
</svg>
