<svg width="31" height="26" viewBox="0 0 31 26" fill="none" xmlns="http://www.w3.org/2000/svg">
<path d="M30.9965 13.585C31.061 12.48 30.2216 12.155 29.8987 12.155H18.275C17.2418 12.155 17.1126 13.26 17.1126 13.325V26H30.9965V13.585ZM22.989 22.685C22.989 23.27 22.537 23.79 21.8913 23.79H20.7935C20.2123 23.79 19.6957 23.27 19.6957 22.685V21.58C19.6957 20.995 20.1477 20.475 20.7935 20.475H21.8913C22.4724 20.475 22.989 20.995 22.989 21.58V22.685ZM22.989 17.16C22.989 17.745 22.537 18.265 21.8913 18.265H20.7935C20.2123 18.265 19.6957 17.745 19.6957 17.16V16.055C19.6957 15.47 20.1477 14.95 20.7935 14.95H21.8913C22.4724 14.95 22.989 15.47 22.989 16.055V17.16ZM28.3489 22.685C28.3489 23.27 27.8968 23.79 27.2511 23.79H26.1533C25.5721 23.79 25.0555 23.27 25.0555 22.685V21.58C25.0555 20.995 25.5075 20.475 26.1533 20.475H27.2511C27.8322 20.475 28.3489 20.995 28.3489 21.58V22.685ZM28.3489 17.16C28.3489 17.745 27.8968 18.265 27.2511 18.265H26.1533C25.5721 18.265 25.0555 17.745 25.0555 17.16V16.055C25.0555 15.47 25.5075 14.95 26.1533 14.95H27.2511C27.8322 14.95 28.3489 15.47 28.3489 16.055V17.16ZM20.2769 7.735V1.43C20.3414 0.325 19.5665 0 19.2436 0H1.16237C0.129152 0 0 1.105 0 1.17V26H13.8838V10.14C13.8838 10.14 13.8838 8.84 15.0462 8.84H19.2436C19.8894 8.84 20.2769 8.19 20.2769 7.735ZM5.87641 22.165C5.87641 22.75 5.42438 23.27 4.77862 23.27H3.74541C3.16422 23.27 2.64762 22.75 2.64762 22.165V21.06C2.64762 20.475 3.09965 19.955 3.74541 19.955H4.8432C5.42438 19.955 5.94099 20.475 5.94099 21.06V22.165H5.87641ZM5.87641 16.575C5.87641 17.16 5.42438 17.68 4.77862 17.68H3.74541C3.16422 17.68 2.64762 17.16 2.64762 16.575V15.47C2.64762 14.885 3.09965 14.365 3.74541 14.365H4.8432C5.42438 14.365 5.94099 14.885 5.94099 15.47V16.575H5.87641ZM5.87641 11.05C5.87641 11.635 5.42438 12.155 4.77862 12.155H3.74541C3.16422 12.155 2.64762 11.635 2.64762 11.05V9.945C2.64762 9.36 3.09965 8.84 3.74541 8.84H4.8432C5.42438 8.84 5.94099 9.36 5.94099 9.945V11.05H5.87641ZM5.87641 5.525C5.87641 6.11 5.42438 6.63 4.77862 6.63H3.74541C3.16422 6.63 2.64762 6.11 2.64762 5.525V4.42C2.64762 3.835 3.09965 3.315 3.74541 3.315H4.8432C5.42438 3.315 5.94099 3.835 5.94099 4.42V5.525H5.87641ZM11.7528 22.165C11.7528 22.75 11.3008 23.27 10.655 23.27H9.55725C8.97606 23.27 8.45945 22.75 8.45945 22.165V21.06C8.45945 20.475 8.91149 19.955 9.55725 19.955H10.655C11.2362 19.955 11.7528 20.475 11.7528 21.06V22.165ZM11.7528 16.575C11.7528 17.16 11.3008 17.68 10.655 17.68H9.55725C8.97606 17.68 8.45945 17.16 8.45945 16.575V15.47C8.45945 14.885 8.91149 14.365 9.55725 14.365H10.655C11.2362 14.365 11.7528 14.885 11.7528 15.47V16.575ZM11.7528 11.05C11.7528 11.635 11.3008 12.155 10.655 12.155H9.55725C8.97606 12.155 8.45945 11.635 8.45945 11.05V9.945C8.45945 9.36 8.91149 8.84 9.55725 8.84H10.655C11.2362 8.84 11.7528 9.36 11.7528 9.945V11.05ZM11.7528 5.525C11.7528 6.11 11.3008 6.63 10.655 6.63H9.55725C8.97606 6.63 8.45945 6.11 8.45945 5.525V4.42C8.45945 3.835 8.91149 3.315 9.55725 3.315H10.655C11.2362 3.315 11.7528 3.835 11.7528 4.42V5.525ZM17.6292 5.525C17.6292 6.11 17.1772 6.63 16.5315 6.63H15.4982C14.9171 6.63 14.4004 6.11 14.4004 5.525V4.42C14.4004 3.835 14.8525 3.315 15.4982 3.315H16.596C17.1772 3.315 17.6938 3.835 17.6938 4.42V5.525H17.6292Z" fill="white"/>
</svg>
