<svg width="27" height="26" viewBox="0 0 27 26" fill="none" xmlns="http://www.w3.org/2000/svg">
<path d="M0.9 20.6207H3.15C3.645 20.6207 4.05 20.2172 4.05 19.7241V5.82759C4.05 5.33448 3.645 4.93103 3.15 4.93103H0.9C0.405 4.93103 0 5.33448 0 5.82759V19.7241C0 20.2172 0.405 20.6207 0.9 20.6207ZM26.1 4.93103H23.85C23.355 4.93103 22.95 5.33448 22.95 5.82759V19.7241C22.95 20.2172 23.355 20.6207 23.85 20.6207H26.1C26.595 20.6207 27 20.2172 27 19.7241V5.82759C27 5.33448 26.595 4.93103 26.1 4.93103ZM14.85 20.6207C15.345 20.6207 15.75 20.2172 15.75 19.7241V5.82759C15.75 5.33448 15.345 4.93103 14.85 4.93103H12.15C11.655 4.93103 11.25 5.33448 11.25 5.82759V19.7241C11.25 20.2172 11.655 20.6207 12.15 20.6207H14.85ZM20.25 20.6207C20.745 20.6207 21.15 20.2172 21.15 19.7241V5.82759C21.15 5.33448 20.745 4.93103 20.25 4.93103H19.35C18.855 4.93103 18.45 5.33448 18.45 5.82759V19.7241C18.45 20.2172 18.855 20.6207 19.35 20.6207H20.25ZM8.55 20.6207C9.045 20.6207 9.45 20.2172 9.45 19.7241V5.82759C9.45 5.33448 9.045 4.93103 8.55 4.93103H7.65C7.155 4.93103 6.75 5.33448 6.75 5.82759V19.7241C6.75 20.2172 7.155 20.6207 7.65 20.6207H8.55ZM26.1 23.3103H0.9C0.405 23.3103 0 23.7138 0 24.2069V25.1034C0 25.5966 0.405 26 0.9 26H26.1C26.595 26 27 25.5966 27 25.1034V24.2069C27 23.7138 26.595 23.3103 26.1 23.3103ZM26.1 0H0.9C0.405 0 0 0.403448 0 0.896552V1.7931C0 2.28621 0.405 2.68966 0.9 2.68966H26.1C26.595 2.68966 27 2.28621 27 1.7931V0.896552C27 0.403448 26.595 0 26.1 0Z" fill="white"/>
</svg>
