<svg width="24" height="24" viewBox="0 0 24 24" fill="none" xmlns="http://www.w3.org/2000/svg">
<path fill-rule="evenodd" clip-rule="evenodd" d="M4.38298 15.4163L8.48876 19.5234C8.67329 19.708 8.95008 19.708 9.13461 19.5234L19.376 9.23257C19.5605 9.04798 19.5605 8.77109 19.376 8.5865L15.3163 4.52553C15.1318 4.34094 14.855 4.34094 14.6705 4.52553L4.38298 14.8164C4.19845 15.001 4.19845 15.2779 4.38298 15.4163V15.4163ZM16.6541 2.6336C16.4695 2.81819 16.4695 3.09507 16.6541 3.27966L20.7137 7.34063C20.8982 7.52522 21.175 7.52522 21.3596 7.34063L22.5129 6.18695C23.251 5.49474 23.251 4.3872 22.5129 3.64884L20.3447 1.47992C19.6065 0.741558 18.4532 0.741558 17.7151 1.47992L16.6541 2.6336V2.6336ZM0.96922 22.2463C0.876955 22.7077 1.29215 23.1231 1.75347 23.0308L6.7819 21.8309C6.96643 21.7848 7.10483 21.6925 7.19709 21.6002L7.28935 21.5079C7.38162 21.4156 7.42775 21.0926 7.24322 20.908L3.09131 16.7547C2.90678 16.5701 2.58385 16.6163 2.49159 16.7086L2.39932 16.8009C2.26093 16.9393 2.21479 17.0777 2.16866 17.2162L0.96922 22.2463V22.2463Z" fill="#747474"/>
</svg>
