<svg width="606" height="42" viewBox="0 0 606 42" fill="none" xmlns="http://www.w3.org/2000/svg">
<path d="M0 8C0 3.58172 3.58172 0 8 0H598C602.418 0 606 3.58172 606 8V34C606 38.4183 602.418 42 598 42H7.99999C3.58171 42 0 38.4183 0 34V8Z" fill="#F9E3B6"/>
<path fill-rule="evenodd" clip-rule="evenodd" d="M27.8153 26.0754L20.7691 14.6807C20.3999 14.0648 19.5999 14.0648 19.2306 14.6807L12.1845 26.0754C11.7537 26.7837 12.1845 27.7692 12.9537 27.7692H27.046C27.8153 27.7692 28.2768 26.7837 27.8153 26.0754ZM19.9999 25.3052C19.4768 25.3052 19.0768 24.9048 19.0768 24.3813C19.0768 23.8578 19.4768 23.4574 19.9999 23.4574C20.5229 23.4574 20.9229 23.8578 20.9229 24.3813C20.9229 24.9048 20.5229 25.3052 19.9999 25.3052ZM20.9229 22.5337C20.9229 22.7185 20.7999 22.8416 20.6152 22.8416H19.3845C19.1999 22.8416 19.0768 22.7185 19.0768 22.5337V18.5301C19.0768 18.3454 19.1999 18.2222 19.3845 18.2222H20.6152C20.7999 18.2222 20.9229 18.3454 20.9229 18.5301V22.5337Z" fill="#8C4B02"/>
<path d="M44.4561 26.2285C43.9694 26.2285 43.506 26.1396 43.0659 25.9619C42.6258 25.7799 42.2344 25.5007 41.8916 25.124C41.5531 24.7432 41.2865 24.2586 41.0918 23.6704C40.8971 23.078 40.7998 22.367 40.7998 21.5376V21.5249C40.7998 20.4966 40.9479 19.6164 41.2441 18.8843C41.5404 18.1479 41.9635 17.5851 42.5137 17.1958C43.068 16.8065 43.7282 16.6118 44.4941 16.6118C45.0527 16.6118 45.5584 16.7155 46.0112 16.9229C46.464 17.126 46.8385 17.4074 47.1348 17.7671C47.431 18.1268 47.6278 18.5415 47.7251 19.0112L47.7378 19.0811H46.1318L46.1064 19.0176C46.026 18.8018 45.9097 18.6156 45.7573 18.459C45.6092 18.2982 45.4272 18.1755 45.2114 18.0908C44.9998 18.002 44.7607 17.9575 44.4941 17.9575C44.0075 17.9575 43.6097 18.1014 43.3008 18.3892C42.9961 18.6727 42.7676 19.0535 42.6152 19.5317C42.4671 20.0099 42.3804 20.5431 42.355 21.1313C42.3507 21.1906 42.3486 21.252 42.3486 21.3154C42.3486 21.3747 42.3486 21.436 42.3486 21.4995L42.6343 23.0293C42.6343 23.3763 42.7147 23.6916 42.8755 23.9751C43.0363 24.2586 43.2542 24.4829 43.5293 24.6479C43.8044 24.813 44.109 24.8955 44.4434 24.8955C44.7819 24.8955 45.0887 24.8151 45.3638 24.6543C45.6388 24.4893 45.8568 24.2692 46.0176 23.9941C46.1784 23.7148 46.2588 23.4059 46.2588 23.0674V23.0547C46.2588 22.6992 46.1805 22.3861 46.0239 22.1152C45.8716 21.8402 45.66 21.6243 45.3892 21.4678C45.1183 21.3112 44.8094 21.2329 44.4624 21.2329C44.1196 21.2329 43.8086 21.3091 43.5293 21.4614C43.2542 21.6138 43.0363 21.8254 42.8755 22.0962C42.7147 22.367 42.6343 22.6738 42.6343 23.0166V23.0293H42.2534V21.3408H42.4756C42.5898 21.0996 42.7528 20.8753 42.9644 20.668C43.1802 20.4606 43.4468 20.2935 43.7642 20.1665C44.0815 20.0396 44.4476 19.9761 44.8623 19.9761C45.4505 19.9761 45.9689 20.1073 46.4175 20.3696C46.8703 20.632 47.2236 20.9917 47.4775 21.4487C47.7314 21.9015 47.8584 22.4178 47.8584 22.9976V23.0103C47.8584 23.6323 47.7124 24.1846 47.4204 24.667C47.1284 25.1494 46.7264 25.5303 46.2144 25.8096C45.7065 26.0889 45.1204 26.2285 44.4561 26.2285ZM53.2666 26V16.8403H55.1455L57.9004 23.8926H58.0083L60.7568 16.8403H62.6357V26H61.1631V19.4873H60.3633L61.9883 17.0942L58.5098 26H57.3926L53.9204 17.0942L55.5454 19.4873H54.7393V26H53.2666ZM67.7012 26.1396C67.0114 26.1396 66.4189 25.9937 65.9238 25.7017C65.4329 25.4097 65.0542 24.995 64.7876 24.4575C64.521 23.9201 64.3877 23.2832 64.3877 22.5469V22.5405C64.3877 21.8127 64.5189 21.1779 64.7812 20.6362C65.0479 20.0946 65.4245 19.6756 65.9111 19.3794C66.3978 19.0789 66.9691 18.9287 67.625 18.9287C68.2852 18.9287 68.8522 19.0747 69.3262 19.3667C69.8044 19.6545 70.1725 20.0586 70.4307 20.5791C70.6888 21.0996 70.8179 21.709 70.8179 22.4072V22.9277H65.1812V21.8677H70.0435L69.2944 22.8579V22.2295C69.2944 21.7682 69.2246 21.3853 69.085 21.0806C68.9453 20.7759 68.7507 20.5474 68.501 20.395C68.2555 20.2427 67.9699 20.1665 67.644 20.1665C67.3182 20.1665 67.0283 20.2469 66.7744 20.4077C66.5247 20.5643 66.3258 20.797 66.1777 21.106C66.0339 21.4106 65.9619 21.7852 65.9619 22.2295V22.8643C65.9619 23.2917 66.0339 23.6577 66.1777 23.9624C66.3216 24.2629 66.5247 24.4956 66.7871 24.6606C67.0537 24.8215 67.369 24.9019 67.7329 24.9019C68.0164 24.9019 68.2598 24.8617 68.4629 24.7812C68.6702 24.6966 68.8374 24.5972 68.9644 24.4829C69.0913 24.3644 69.1802 24.2523 69.231 24.1465L69.25 24.1021H70.748L70.7354 24.1592C70.6803 24.3835 70.5788 24.612 70.4307 24.8447C70.2868 25.0732 70.09 25.2869 69.8403 25.4858C69.5949 25.6805 69.2944 25.8392 68.939 25.9619C68.5835 26.0804 68.1709 26.1396 67.7012 26.1396ZM74.29 26.1143C73.8542 26.1143 73.4627 26.0296 73.1157 25.8604C72.7729 25.6911 72.5021 25.452 72.3032 25.1431C72.1086 24.8299 72.0112 24.4618 72.0112 24.0386V24.0259C72.0112 23.6154 72.1128 23.262 72.3159 22.9658C72.519 22.6654 72.8174 22.4305 73.2109 22.2612C73.6045 22.092 74.0827 21.9925 74.6455 21.9629L77.21 21.8042V22.8452L74.8677 22.9976C74.4233 23.0229 74.0954 23.116 73.8838 23.2769C73.6722 23.4377 73.5664 23.6619 73.5664 23.9497V23.9624C73.5664 24.2586 73.6785 24.4893 73.9028 24.6543C74.1313 24.8193 74.4212 24.9019 74.7725 24.9019C75.0898 24.9019 75.3734 24.8384 75.623 24.7114C75.8727 24.5845 76.0695 24.4131 76.2134 24.1973C76.3573 23.9772 76.4292 23.7297 76.4292 23.4546V21.2583C76.4292 20.9113 76.3192 20.6468 76.0991 20.4648C75.8791 20.2786 75.5532 20.1855 75.1216 20.1855C74.7619 20.1855 74.4678 20.249 74.2393 20.376C74.0107 20.4987 73.8563 20.6743 73.7759 20.9028L73.7695 20.9282H72.2778L72.2842 20.8711C72.335 20.4818 72.4873 20.1411 72.7412 19.8491C72.9951 19.5571 73.3315 19.3307 73.7505 19.1699C74.1694 19.0091 74.6519 18.9287 75.1978 18.9287C75.7987 18.9287 76.3065 19.0218 76.7212 19.208C77.1359 19.39 77.4512 19.6566 77.667 20.0078C77.8828 20.3548 77.9907 20.7716 77.9907 21.2583V26H76.4292V25.0479H76.3213C76.1943 25.2679 76.0293 25.4583 75.8262 25.6191C75.6273 25.7799 75.3988 25.9027 75.1406 25.9873C74.8825 26.0719 74.599 26.1143 74.29 26.1143ZM82.5103 26.1396C81.922 26.1396 81.4142 26.0571 80.9868 25.8921C80.5636 25.7228 80.2293 25.4901 79.9839 25.1938C79.7384 24.8934 79.5924 24.5464 79.5459 24.1528V24.1401H81.1138L81.1201 24.1528C81.2048 24.394 81.3634 24.5908 81.5962 24.7432C81.8289 24.8955 82.1421 24.9717 82.5356 24.9717C82.798 24.9717 83.0286 24.9357 83.2275 24.8638C83.4264 24.7876 83.583 24.6839 83.6973 24.5527C83.8115 24.4215 83.8687 24.2692 83.8687 24.0957V24.083C83.8687 23.8799 83.7861 23.7106 83.6211 23.5752C83.4561 23.4355 83.1831 23.3234 82.8022 23.2388L81.6787 22.9849C81.2386 22.8875 80.8747 22.7521 80.5869 22.5786C80.2992 22.4051 80.0833 22.1914 79.9395 21.9375C79.7998 21.6836 79.73 21.3874 79.73 21.0488V21.0425C79.73 20.6235 79.8464 20.2554 80.0791 19.938C80.3161 19.6206 80.644 19.373 81.063 19.1953C81.4819 19.0176 81.9644 18.9287 82.5103 18.9287C83.0731 18.9287 83.5576 19.0133 83.9639 19.1826C84.3701 19.3519 84.6875 19.5846 84.916 19.8809C85.1445 20.1771 85.2757 20.5135 85.3096 20.8901V20.9028H83.8242L83.8179 20.8838C83.7586 20.6637 83.6169 20.4775 83.3926 20.3252C83.1725 20.1686 82.8763 20.0903 82.5039 20.0903C82.2712 20.0903 82.0617 20.1263 81.8755 20.1982C81.6935 20.2702 81.5496 20.3717 81.4438 20.5029C81.3423 20.6299 81.2915 20.7801 81.2915 20.9536V20.96C81.2915 21.0954 81.3254 21.2139 81.3931 21.3154C81.465 21.417 81.5771 21.5059 81.7295 21.582C81.8818 21.6582 82.0828 21.7259 82.3325 21.7852L83.4561 22.0327C84.1374 22.1851 84.641 22.4115 84.9668 22.7119C85.2926 23.0124 85.4556 23.4165 85.4556 23.9243V23.937C85.4556 24.3771 85.3286 24.7622 85.0747 25.0923C84.8208 25.4224 84.4717 25.6805 84.0273 25.8667C83.583 26.0487 83.0773 26.1396 82.5103 26.1396ZM89.3467 26.1396C88.8304 26.1396 88.3966 26.0402 88.0454 25.8413C87.6942 25.6382 87.4297 25.3441 87.252 24.959C87.0742 24.5697 86.9854 24.0999 86.9854 23.5498V19.062H88.5659V23.188C88.5659 23.7254 88.6717 24.1296 88.8833 24.4004C89.0949 24.6712 89.4398 24.8066 89.918 24.8066C90.1719 24.8066 90.3962 24.7686 90.5908 24.6924C90.7897 24.612 90.9548 24.4977 91.0859 24.3496C91.2171 24.2015 91.3166 24.0238 91.3843 23.8164C91.452 23.6048 91.4858 23.3678 91.4858 23.1055V19.062H93.0664V26H91.4858V24.9463H91.3779C91.2721 25.1917 91.124 25.4054 90.9336 25.5874C90.7432 25.7651 90.5146 25.9027 90.248 26C89.9814 26.0931 89.681 26.1396 89.3467 26.1396ZM94.9961 26V19.062H96.5767V20.1284H96.6846C96.8031 19.756 97.0146 19.4661 97.3193 19.2588C97.6283 19.0514 98.0112 18.9478 98.4683 18.9478C98.5868 18.9478 98.7031 18.9562 98.8174 18.9731C98.9359 18.9858 99.0332 19.0028 99.1094 19.0239V20.4395C98.9824 20.4098 98.8534 20.3887 98.7222 20.376C98.5952 20.359 98.4619 20.3506 98.3223 20.3506C97.971 20.3506 97.6642 20.4162 97.4019 20.5474C97.1395 20.6785 96.9364 20.8669 96.7925 21.1123C96.6486 21.3535 96.5767 21.6392 96.5767 21.9692V26H94.9961ZM103.197 26.1396C102.507 26.1396 101.915 25.9937 101.42 25.7017C100.929 25.4097 100.55 24.995 100.284 24.4575C100.017 23.9201 99.8838 23.2832 99.8838 22.5469V22.5405C99.8838 21.8127 100.015 21.1779 100.277 20.6362C100.544 20.0946 100.921 19.6756 101.407 19.3794C101.894 19.0789 102.465 18.9287 103.121 18.9287C103.781 18.9287 104.348 19.0747 104.822 19.3667C105.3 19.6545 105.669 20.0586 105.927 20.5791C106.185 21.0996 106.314 21.709 106.314 22.4072V22.9277H100.677V21.8677H105.54L104.791 22.8579V22.2295C104.791 21.7682 104.721 21.3853 104.581 21.0806C104.441 20.7759 104.247 20.5474 103.997 20.395C103.752 20.2427 103.466 20.1665 103.14 20.1665C102.814 20.1665 102.524 20.2469 102.271 20.4077C102.021 20.5643 101.822 20.797 101.674 21.106C101.53 21.4106 101.458 21.7852 101.458 22.2295V22.8643C101.458 23.2917 101.53 23.6577 101.674 23.9624C101.818 24.2629 102.021 24.4956 102.283 24.6606C102.55 24.8215 102.865 24.9019 103.229 24.9019C103.513 24.9019 103.756 24.8617 103.959 24.7812C104.166 24.6966 104.333 24.5972 104.46 24.4829C104.587 24.3644 104.676 24.2523 104.727 24.1465L104.746 24.1021H106.244L106.231 24.1592C106.176 24.3835 106.075 24.612 105.927 24.8447C105.783 25.0732 105.586 25.2869 105.336 25.4858C105.091 25.6805 104.791 25.8392 104.435 25.9619C104.08 26.0804 103.667 26.1396 103.197 26.1396ZM110.516 26.1396C109.928 26.1396 109.42 26.0571 108.993 25.8921C108.569 25.7228 108.235 25.4901 107.99 25.1938C107.744 24.8934 107.598 24.5464 107.552 24.1528V24.1401H109.12L109.126 24.1528C109.211 24.394 109.369 24.5908 109.602 24.7432C109.835 24.8955 110.148 24.9717 110.542 24.9717C110.804 24.9717 111.035 24.9357 111.233 24.8638C111.432 24.7876 111.589 24.6839 111.703 24.5527C111.817 24.4215 111.875 24.2692 111.875 24.0957V24.083C111.875 23.8799 111.792 23.7106 111.627 23.5752C111.462 23.4355 111.189 23.3234 110.808 23.2388L109.685 22.9849C109.244 22.8875 108.881 22.7521 108.593 22.5786C108.305 22.4051 108.089 22.1914 107.945 21.9375C107.806 21.6836 107.736 21.3874 107.736 21.0488V21.0425C107.736 20.6235 107.852 20.2554 108.085 19.938C108.322 19.6206 108.65 19.373 109.069 19.1953C109.488 19.0176 109.97 18.9287 110.516 18.9287C111.079 18.9287 111.563 19.0133 111.97 19.1826C112.376 19.3519 112.693 19.5846 112.922 19.8809C113.15 20.1771 113.282 20.5135 113.315 20.8901V20.9028H111.83L111.824 20.8838C111.764 20.6637 111.623 20.4775 111.398 20.3252C111.178 20.1686 110.882 20.0903 110.51 20.0903C110.277 20.0903 110.068 20.1263 109.881 20.1982C109.699 20.2702 109.556 20.3717 109.45 20.5029C109.348 20.6299 109.297 20.7801 109.297 20.9536V20.96C109.297 21.0954 109.331 21.2139 109.399 21.3154C109.471 21.417 109.583 21.5059 109.735 21.582C109.888 21.6582 110.089 21.7259 110.338 21.7852L111.462 22.0327C112.143 22.1851 112.647 22.4115 112.973 22.7119C113.299 23.0124 113.461 23.4165 113.461 23.9243V23.937C113.461 24.3771 113.334 24.7622 113.081 25.0923C112.827 25.4224 112.478 25.6805 112.033 25.8667C111.589 26.0487 111.083 26.1396 110.516 26.1396ZM119.847 26L117.962 19.062H119.549L120.698 24.2798H120.812L122.145 19.062H123.649L124.989 24.2798H125.103L126.252 19.062H127.82L125.935 26H124.284L122.932 20.9727H122.824L121.479 26H119.847ZM129.204 26V19.062H130.778V26H129.204ZM129.997 17.9004C129.739 17.9004 129.517 17.8094 129.331 17.6274C129.144 17.4455 129.051 17.2275 129.051 16.9736C129.051 16.7113 129.144 16.4912 129.331 16.3135C129.517 16.1315 129.739 16.0405 129.997 16.0405C130.255 16.0405 130.475 16.1315 130.657 16.3135C130.843 16.4912 130.937 16.7113 130.937 16.9736C130.937 17.2275 130.843 17.4455 130.657 17.6274C130.475 17.8094 130.255 17.9004 129.997 17.9004ZM132.79 26V16.377H134.371V26H132.79ZM136.421 26V16.377H138.001V26H136.421ZM147.313 26.1143C146.988 26.1143 146.689 26.0677 146.418 25.9746C146.148 25.8773 145.909 25.7397 145.701 25.562C145.498 25.38 145.333 25.1642 145.206 24.9146H145.098V26H143.518V16.377H145.098V20.1665H145.206C145.329 19.9168 145.494 19.701 145.701 19.519C145.909 19.3371 146.15 19.1974 146.425 19.1001C146.7 18.9985 146.996 18.9478 147.313 18.9478C147.897 18.9478 148.401 19.0938 148.824 19.3857C149.252 19.6735 149.582 20.0861 149.814 20.6235C150.047 21.1567 150.164 21.7915 150.164 22.5278V22.5405C150.164 23.2684 150.045 23.901 149.808 24.4385C149.575 24.9759 149.245 25.3906 148.818 25.6826C148.395 25.9704 147.893 26.1143 147.313 26.1143ZM146.818 24.7812C147.178 24.7812 147.487 24.6924 147.745 24.5146C148.003 24.3327 148.202 24.0745 148.342 23.7402C148.481 23.4059 148.551 23.006 148.551 22.5405V22.5278C148.551 22.0623 148.481 21.6624 148.342 21.3281C148.202 20.9896 148.003 20.7314 147.745 20.5537C147.487 20.3717 147.178 20.2808 146.818 20.2808C146.463 20.2808 146.154 20.3717 145.892 20.5537C145.629 20.7357 145.426 20.9938 145.282 21.3281C145.143 21.6624 145.073 22.0623 145.073 22.5278V22.5405C145.073 23.0018 145.143 23.4017 145.282 23.7402C145.426 24.0745 145.627 24.3327 145.885 24.5146C146.148 24.6924 146.459 24.7812 146.818 24.7812ZM154.715 26.1396C154.025 26.1396 153.433 25.9937 152.938 25.7017C152.447 25.4097 152.068 24.995 151.801 24.4575C151.535 23.9201 151.401 23.2832 151.401 22.5469V22.5405C151.401 21.8127 151.533 21.1779 151.795 20.6362C152.062 20.0946 152.438 19.6756 152.925 19.3794C153.411 19.0789 153.983 18.9287 154.639 18.9287C155.299 18.9287 155.866 19.0747 156.34 19.3667C156.818 19.6545 157.186 20.0586 157.444 20.5791C157.702 21.0996 157.832 21.709 157.832 22.4072V22.9277H152.195V21.8677H157.057L156.308 22.8579V22.2295C156.308 21.7682 156.238 21.3853 156.099 21.0806C155.959 20.7759 155.764 20.5474 155.515 20.395C155.269 20.2427 154.984 20.1665 154.658 20.1665C154.332 20.1665 154.042 20.2469 153.788 20.4077C153.538 20.5643 153.34 20.797 153.191 21.106C153.048 21.4106 152.976 21.7852 152.976 22.2295V22.8643C152.976 23.2917 153.048 23.6577 153.191 23.9624C153.335 24.2629 153.538 24.4956 153.801 24.6606C154.067 24.8215 154.383 24.9019 154.747 24.9019C155.03 24.9019 155.273 24.8617 155.477 24.7812C155.684 24.6966 155.851 24.5972 155.978 24.4829C156.105 24.3644 156.194 24.2523 156.245 24.1465L156.264 24.1021H157.762L157.749 24.1592C157.694 24.3835 157.592 24.612 157.444 24.8447C157.3 25.0732 157.104 25.2869 156.854 25.4858C156.609 25.6805 156.308 25.8392 155.953 25.9619C155.597 26.0804 155.185 26.1396 154.715 26.1396ZM162.897 26V19.062H164.471V26H162.897ZM163.69 17.9004C163.432 17.9004 163.21 17.8094 163.024 17.6274C162.838 17.4455 162.745 17.2275 162.745 16.9736C162.745 16.7113 162.838 16.4912 163.024 16.3135C163.21 16.1315 163.432 16.0405 163.69 16.0405C163.949 16.0405 164.169 16.1315 164.351 16.3135C164.537 16.4912 164.63 16.7113 164.63 16.9736C164.63 17.2275 164.537 17.4455 164.351 17.6274C164.169 17.8094 163.949 17.9004 163.69 17.9004ZM166.42 26V19.062H168V20.1411H168.108C168.257 19.756 168.496 19.4577 168.826 19.2461C169.16 19.0345 169.556 18.9287 170.013 18.9287C170.326 18.9287 170.607 18.9795 170.857 19.0811C171.111 19.1826 171.329 19.3265 171.511 19.5127C171.693 19.6989 171.832 19.9211 171.93 20.1792H172.044C172.158 19.9295 172.317 19.7116 172.52 19.5254C172.727 19.335 172.969 19.189 173.244 19.0874C173.523 18.9816 173.823 18.9287 174.145 18.9287C174.611 18.9287 175.008 19.0218 175.338 19.208C175.673 19.39 175.929 19.6523 176.106 19.9951C176.288 20.3379 176.379 20.7484 176.379 21.2266V26H174.799V21.6138C174.799 21.3091 174.752 21.0573 174.659 20.8584C174.57 20.6595 174.433 20.5093 174.247 20.4077C174.06 20.3062 173.826 20.2554 173.542 20.2554C173.267 20.2554 173.028 20.3188 172.825 20.4458C172.622 20.5685 172.463 20.7357 172.349 20.9473C172.239 21.1589 172.184 21.3979 172.184 21.6646V26H170.603V21.4995C170.603 21.2414 170.552 21.0192 170.451 20.833C170.353 20.6468 170.209 20.505 170.019 20.4077C169.833 20.3062 169.611 20.2554 169.353 20.2554C169.094 20.2554 168.862 20.3231 168.654 20.4585C168.451 20.5897 168.29 20.7716 168.172 21.0044C168.058 21.2329 168 21.491 168 21.7788V26H166.42ZM178.239 28.3042V19.062H179.82V20.1475H179.928C180.055 19.8978 180.22 19.6841 180.423 19.5063C180.63 19.3286 180.869 19.1911 181.14 19.0938C181.411 18.9964 181.709 18.9478 182.035 18.9478C182.615 18.9478 183.116 19.0938 183.54 19.3857C183.967 19.6777 184.297 20.0924 184.53 20.6299C184.767 21.1631 184.885 21.7957 184.885 22.5278V22.5405C184.885 23.2769 184.769 23.9116 184.536 24.4448C184.303 24.978 183.973 25.3906 183.546 25.6826C183.123 25.9704 182.619 26.1143 182.035 26.1143C181.718 26.1143 181.422 26.0656 181.146 25.9683C180.871 25.8667 180.63 25.7249 180.423 25.543C180.215 25.361 180.05 25.1452 179.928 24.8955H179.82V28.3042H178.239ZM181.54 24.7812C181.9 24.7812 182.209 24.6924 182.467 24.5146C182.725 24.3327 182.924 24.0745 183.063 23.7402C183.203 23.4017 183.273 23.0018 183.273 22.5405V22.5278C183.273 22.0581 183.203 21.6561 183.063 21.3218C182.924 20.9875 182.725 20.7314 182.467 20.5537C182.209 20.3717 181.9 20.2808 181.54 20.2808C181.18 20.2808 180.869 20.3717 180.607 20.5537C180.349 20.7314 180.148 20.9875 180.004 21.3218C179.864 21.6561 179.794 22.056 179.794 22.5215V22.5342C179.794 22.9997 179.864 23.4017 180.004 23.7402C180.148 24.0745 180.351 24.3327 180.613 24.5146C180.876 24.6924 181.185 24.7812 181.54 24.7812ZM188.37 26.1143C187.934 26.1143 187.543 26.0296 187.196 25.8604C186.853 25.6911 186.582 25.452 186.383 25.1431C186.189 24.8299 186.091 24.4618 186.091 24.0386V24.0259C186.091 23.6154 186.193 23.262 186.396 22.9658C186.599 22.6654 186.897 22.4305 187.291 22.2612C187.685 22.092 188.163 21.9925 188.726 21.9629L191.29 21.8042V22.8452L188.948 22.9976C188.503 23.0229 188.175 23.116 187.964 23.2769C187.752 23.4377 187.646 23.6619 187.646 23.9497V23.9624C187.646 24.2586 187.759 24.4893 187.983 24.6543C188.211 24.8193 188.501 24.9019 188.853 24.9019C189.17 24.9019 189.453 24.8384 189.703 24.7114C189.953 24.5845 190.15 24.4131 190.293 24.1973C190.437 23.9772 190.509 23.7297 190.509 23.4546V21.2583C190.509 20.9113 190.399 20.6468 190.179 20.4648C189.959 20.2786 189.633 20.1855 189.202 20.1855C188.842 20.1855 188.548 20.249 188.319 20.376C188.091 20.4987 187.936 20.6743 187.856 20.9028L187.85 20.9282H186.358L186.364 20.8711C186.415 20.4818 186.567 20.1411 186.821 19.8491C187.075 19.5571 187.412 19.3307 187.831 19.1699C188.25 19.0091 188.732 18.9287 189.278 18.9287C189.879 18.9287 190.387 19.0218 190.801 19.208C191.216 19.39 191.531 19.6566 191.747 20.0078C191.963 20.3548 192.071 20.7716 192.071 21.2583V26H190.509V25.0479H190.401C190.274 25.2679 190.109 25.4583 189.906 25.6191C189.707 25.7799 189.479 25.9027 189.221 25.9873C188.963 26.0719 188.679 26.1143 188.37 26.1143ZM196.946 26.1396C196.248 26.1396 195.651 25.9958 195.156 25.708C194.661 25.4202 194.282 25.0055 194.02 24.4639C193.757 23.9222 193.626 23.2747 193.626 22.5215V22.5088C193.626 21.7598 193.757 21.1187 194.02 20.5854C194.282 20.0522 194.661 19.6439 195.156 19.3604C195.651 19.0726 196.245 18.9287 196.939 18.9287C197.536 18.9287 198.048 19.0324 198.476 19.2397C198.907 19.4429 199.248 19.7264 199.498 20.0903C199.751 20.45 199.908 20.8711 199.967 21.3535V21.3789H198.476L198.469 21.3599C198.397 21.0213 198.232 20.7441 197.974 20.5283C197.72 20.3125 197.377 20.2046 196.946 20.2046C196.586 20.2046 196.277 20.2956 196.019 20.4775C195.765 20.6595 195.57 20.9219 195.435 21.2646C195.3 21.6074 195.232 22.0221 195.232 22.5088V22.5215C195.232 23.0124 195.3 23.4334 195.435 23.7847C195.575 24.1317 195.771 24.3983 196.025 24.5845C196.279 24.7664 196.586 24.8574 196.946 24.8574C197.356 24.8574 197.686 24.7643 197.936 24.5781C198.19 24.3919 198.366 24.1169 198.463 23.7529L198.476 23.7275L199.961 23.7212L199.955 23.7783C199.878 24.248 199.713 24.6606 199.459 25.0161C199.21 25.3716 198.875 25.6488 198.457 25.8477C198.038 26.0423 197.534 26.1396 196.946 26.1396ZM204.29 26.0317C203.494 26.0317 202.921 25.8857 202.57 25.5938C202.219 25.3018 202.043 24.8236 202.043 24.1592V20.2871H200.964V19.062H202.043V17.3608H203.649V19.062H205.109V20.2871H203.649V23.7847C203.649 24.1274 203.721 24.3792 203.865 24.54C204.013 24.6966 204.25 24.7749 204.576 24.7749C204.69 24.7749 204.783 24.7728 204.855 24.7686C204.931 24.7601 205.016 24.7516 205.109 24.7432V25.9619C204.999 25.9831 204.872 26 204.728 26.0127C204.588 26.0254 204.442 26.0317 204.29 26.0317ZM209.597 26.1396C208.907 26.1396 208.314 25.9937 207.819 25.7017C207.328 25.4097 206.95 24.995 206.683 24.4575C206.417 23.9201 206.283 23.2832 206.283 22.5469V22.5405C206.283 21.8127 206.414 21.1779 206.677 20.6362C206.943 20.0946 207.32 19.6756 207.807 19.3794C208.293 19.0789 208.865 18.9287 209.521 18.9287C210.181 18.9287 210.748 19.0747 211.222 19.3667C211.7 19.6545 212.068 20.0586 212.326 20.5791C212.584 21.0996 212.713 21.709 212.713 22.4072V22.9277H207.077V21.8677H211.939L211.19 22.8579V22.2295C211.19 21.7682 211.12 21.3853 210.98 21.0806C210.841 20.7759 210.646 20.5474 210.396 20.395C210.151 20.2427 209.865 20.1665 209.54 20.1665C209.214 20.1665 208.924 20.2469 208.67 20.4077C208.42 20.5643 208.221 20.797 208.073 21.106C207.929 21.4106 207.857 21.7852 207.857 22.2295V22.8643C207.857 23.2917 207.929 23.6577 208.073 23.9624C208.217 24.2629 208.42 24.4956 208.683 24.6606C208.949 24.8215 209.264 24.9019 209.628 24.9019C209.912 24.9019 210.155 24.8617 210.358 24.7812C210.566 24.6966 210.733 24.5972 210.86 24.4829C210.987 24.3644 211.076 24.2523 211.126 24.1465L211.146 24.1021H212.644L212.631 24.1592C212.576 24.3835 212.474 24.612 212.326 24.8447C212.182 25.0732 211.986 25.2869 211.736 25.4858C211.49 25.6805 211.19 25.8392 210.834 25.9619C210.479 26.0804 210.066 26.1396 209.597 26.1396ZM216.795 26.1143C216.219 26.1143 215.718 25.9704 215.291 25.6826C214.863 25.3906 214.533 24.9759 214.3 24.4385C214.068 23.901 213.951 23.2684 213.951 22.5405V22.5278C213.951 21.7915 214.065 21.1567 214.294 20.6235C214.527 20.0861 214.855 19.6735 215.278 19.3857C215.705 19.0938 216.211 18.9478 216.795 18.9478C217.112 18.9478 217.409 18.9985 217.684 19.1001C217.959 19.1974 218.2 19.3371 218.407 19.519C218.619 19.701 218.784 19.9168 218.902 20.1665H219.017V16.377H220.591V26H219.017V24.9146H218.902C218.775 25.1642 218.608 25.38 218.401 25.562C218.198 25.7397 217.961 25.8773 217.69 25.9746C217.419 26.0677 217.121 26.1143 216.795 26.1143ZM217.29 24.7812C217.65 24.7812 217.959 24.6924 218.217 24.5146C218.479 24.3327 218.68 24.0745 218.82 23.7402C218.964 23.4017 219.036 23.0018 219.036 22.5405V22.5278C219.036 22.0623 218.964 21.6624 218.82 21.3281C218.68 20.9938 218.479 20.7357 218.217 20.5537C217.959 20.3717 217.65 20.2808 217.29 20.2808C216.935 20.2808 216.626 20.3717 216.363 20.5537C216.105 20.7314 215.906 20.9896 215.767 21.3281C215.627 21.6624 215.557 22.0623 215.557 22.5278V22.5405C215.557 23.006 215.627 23.4059 215.767 23.7402C215.906 24.0745 216.105 24.3327 216.363 24.5146C216.621 24.6924 216.93 24.7812 217.29 24.7812ZM229.909 26.1143C229.583 26.1143 229.285 26.0677 229.014 25.9746C228.743 25.8773 228.504 25.7397 228.297 25.562C228.094 25.38 227.929 25.1642 227.802 24.9146H227.694V26H226.113V16.377H227.694V20.1665H227.802C227.924 19.9168 228.09 19.701 228.297 19.519C228.504 19.3371 228.745 19.1974 229.021 19.1001C229.296 18.9985 229.592 18.9478 229.909 18.9478C230.493 18.9478 230.997 19.0938 231.42 19.3857C231.847 19.6735 232.177 20.0861 232.41 20.6235C232.643 21.1567 232.759 21.7915 232.759 22.5278V22.5405C232.759 23.2684 232.641 23.901 232.404 24.4385C232.171 24.9759 231.841 25.3906 231.414 25.6826C230.99 25.9704 230.489 26.1143 229.909 26.1143ZM229.414 24.7812C229.774 24.7812 230.083 24.6924 230.341 24.5146C230.599 24.3327 230.798 24.0745 230.938 23.7402C231.077 23.4059 231.147 23.006 231.147 22.5405V22.5278C231.147 22.0623 231.077 21.6624 230.938 21.3281C230.798 20.9896 230.599 20.7314 230.341 20.5537C230.083 20.3717 229.774 20.2808 229.414 20.2808C229.059 20.2808 228.75 20.3717 228.487 20.5537C228.225 20.7357 228.022 20.9938 227.878 21.3281C227.738 21.6624 227.668 22.0623 227.668 22.5278V22.5405C227.668 23.0018 227.738 23.4017 227.878 23.7402C228.022 24.0745 228.223 24.3327 228.481 24.5146C228.743 24.6924 229.054 24.7812 229.414 24.7812ZM234.803 28.4375C234.706 28.4375 234.604 28.4354 234.499 28.4312C234.397 28.4269 234.298 28.4206 234.2 28.4121V27.1997C234.264 27.2082 234.338 27.2124 234.422 27.2124C234.507 27.2166 234.59 27.2188 234.67 27.2188C234.996 27.2188 235.256 27.1468 235.451 27.0029C235.65 26.8633 235.791 26.6369 235.876 26.3237L235.958 26.0063L233.477 19.062H235.203L237.031 25.2065L236.6 24.4829H237.146L236.727 25.2065L238.555 19.062H240.218L237.729 26.1523C237.526 26.7279 237.296 27.1828 237.038 27.5171C236.784 27.8514 236.475 28.0884 236.111 28.228C235.751 28.3677 235.315 28.4375 234.803 28.4375ZM247.759 26.0317C246.963 26.0317 246.39 25.8857 246.039 25.5938C245.687 25.3018 245.512 24.8236 245.512 24.1592V20.2871H244.433V19.062H245.512V17.3608H247.118V19.062H248.578V20.2871H247.118V23.7847C247.118 24.1274 247.19 24.3792 247.333 24.54C247.482 24.6966 247.719 24.7749 248.044 24.7749C248.159 24.7749 248.252 24.7728 248.324 24.7686C248.4 24.7601 248.485 24.7516 248.578 24.7432V25.9619C248.468 25.9831 248.341 26 248.197 26.0127C248.057 26.0254 247.911 26.0317 247.759 26.0317ZM250.222 26V16.377H251.802V20.1284H251.91C252.075 19.7518 252.325 19.4577 252.659 19.2461C252.993 19.0345 253.41 18.9287 253.91 18.9287C254.426 18.9287 254.862 19.0303 255.217 19.2334C255.573 19.4323 255.841 19.7243 256.023 20.1094C256.21 20.4945 256.303 20.9621 256.303 21.5122V26H254.722V21.8804C254.722 21.3387 254.608 20.9325 254.379 20.6616C254.155 20.3908 253.804 20.2554 253.326 20.2554C253.013 20.2554 252.742 20.3252 252.513 20.4648C252.285 20.6045 252.109 20.8013 251.986 21.0552C251.864 21.3091 251.802 21.6095 251.802 21.9565V26H250.222ZM258.188 26V19.062H259.762V26H258.188ZM258.981 17.9004C258.723 17.9004 258.501 17.8094 258.315 17.6274C258.129 17.4455 258.036 17.2275 258.036 16.9736C258.036 16.7113 258.129 16.4912 258.315 16.3135C258.501 16.1315 258.723 16.0405 258.981 16.0405C259.24 16.0405 259.46 16.1315 259.642 16.3135C259.828 16.4912 259.921 16.7113 259.921 16.9736C259.921 17.2275 259.828 17.4455 259.642 17.6274C259.46 17.8094 259.24 17.9004 258.981 17.9004ZM264.333 26.1396C263.744 26.1396 263.236 26.0571 262.809 25.8921C262.386 25.7228 262.052 25.4901 261.806 25.1938C261.561 24.8934 261.415 24.5464 261.368 24.1528V24.1401H262.936L262.942 24.1528C263.027 24.394 263.186 24.5908 263.418 24.7432C263.651 24.8955 263.964 24.9717 264.358 24.9717C264.62 24.9717 264.851 24.9357 265.05 24.8638C265.249 24.7876 265.405 24.6839 265.52 24.5527C265.634 24.4215 265.691 24.2692 265.691 24.0957V24.083C265.691 23.8799 265.608 23.7106 265.443 23.5752C265.278 23.4355 265.005 23.3234 264.625 23.2388L263.501 22.9849C263.061 22.8875 262.697 22.7521 262.409 22.5786C262.121 22.4051 261.906 22.1914 261.762 21.9375C261.622 21.6836 261.552 21.3874 261.552 21.0488V21.0425C261.552 20.6235 261.669 20.2554 261.901 19.938C262.138 19.6206 262.466 19.373 262.885 19.1953C263.304 19.0176 263.787 18.9287 264.333 18.9287C264.895 18.9287 265.38 19.0133 265.786 19.1826C266.192 19.3519 266.51 19.5846 266.738 19.8809C266.967 20.1771 267.098 20.5135 267.132 20.8901V20.9028H265.646L265.64 20.8838C265.581 20.6637 265.439 20.4775 265.215 20.3252C264.995 20.1686 264.699 20.0903 264.326 20.0903C264.093 20.0903 263.884 20.1263 263.698 20.1982C263.516 20.2702 263.372 20.3717 263.266 20.5029C263.165 20.6299 263.114 20.7801 263.114 20.9536V20.96C263.114 21.0954 263.148 21.2139 263.215 21.3154C263.287 21.417 263.399 21.5059 263.552 21.582C263.704 21.6582 263.905 21.7259 264.155 21.7852L265.278 22.0327C265.96 22.1851 266.463 22.4115 266.789 22.7119C267.115 23.0124 267.278 23.4165 267.278 23.9243V23.937C267.278 24.3771 267.151 24.7622 266.897 25.0923C266.643 25.4224 266.294 25.6805 265.85 25.8667C265.405 26.0487 264.9 26.1396 264.333 26.1396ZM275.314 26.1396C274.616 26.1396 274.019 25.9958 273.524 25.708C273.029 25.4202 272.65 25.0055 272.388 24.4639C272.125 23.9222 271.994 23.2747 271.994 22.5215V22.5088C271.994 21.7598 272.125 21.1187 272.388 20.5854C272.65 20.0522 273.029 19.6439 273.524 19.3604C274.019 19.0726 274.614 18.9287 275.308 18.9287C275.904 18.9287 276.416 19.0324 276.844 19.2397C277.275 19.4429 277.616 19.7264 277.866 20.0903C278.12 20.45 278.276 20.8711 278.335 21.3535V21.3789H276.844L276.837 21.3599C276.765 21.0213 276.6 20.7441 276.342 20.5283C276.088 20.3125 275.746 20.2046 275.314 20.2046C274.954 20.2046 274.645 20.2956 274.387 20.4775C274.133 20.6595 273.939 20.9219 273.803 21.2646C273.668 21.6074 273.6 22.0221 273.6 22.5088V22.5215C273.6 23.0124 273.668 23.4334 273.803 23.7847C273.943 24.1317 274.14 24.3983 274.394 24.5845C274.647 24.7664 274.954 24.8574 275.314 24.8574C275.724 24.8574 276.055 24.7643 276.304 24.5781C276.558 24.3919 276.734 24.1169 276.831 23.7529L276.844 23.7275L278.329 23.7212L278.323 23.7783C278.247 24.248 278.082 24.6606 277.828 25.0161C277.578 25.3716 277.244 25.6488 276.825 25.8477C276.406 26.0423 275.902 26.1396 275.314 26.1396ZM279.903 26V16.377H281.484V20.1284H281.592C281.757 19.7518 282.007 19.4577 282.341 19.2461C282.675 19.0345 283.092 18.9287 283.591 18.9287C284.108 18.9287 284.543 19.0303 284.899 19.2334C285.254 19.4323 285.523 19.7243 285.705 20.1094C285.891 20.4945 285.984 20.9621 285.984 21.5122V26H284.404V21.8804C284.404 21.3387 284.29 20.9325 284.061 20.6616C283.837 20.3908 283.486 20.2554 283.007 20.2554C282.694 20.2554 282.423 20.3252 282.195 20.4648C281.966 20.6045 281.791 20.8013 281.668 21.0552C281.545 21.3091 281.484 21.6095 281.484 21.9565V26H279.903ZM289.742 26.1143C289.306 26.1143 288.915 26.0296 288.568 25.8604C288.225 25.6911 287.954 25.452 287.755 25.1431C287.561 24.8299 287.463 24.4618 287.463 24.0386V24.0259C287.463 23.6154 287.565 23.262 287.768 22.9658C287.971 22.6654 288.27 22.4305 288.663 22.2612C289.057 22.092 289.535 21.9925 290.098 21.9629L292.662 21.8042V22.8452L290.32 22.9976C289.875 23.0229 289.548 23.116 289.336 23.2769C289.124 23.4377 289.019 23.6619 289.019 23.9497V23.9624C289.019 24.2586 289.131 24.4893 289.355 24.6543C289.583 24.8193 289.873 24.9019 290.225 24.9019C290.542 24.9019 290.826 24.8384 291.075 24.7114C291.325 24.5845 291.522 24.4131 291.666 24.1973C291.809 23.9772 291.881 23.7297 291.881 23.4546V21.2583C291.881 20.9113 291.771 20.6468 291.551 20.4648C291.331 20.2786 291.005 20.1855 290.574 20.1855C290.214 20.1855 289.92 20.249 289.691 20.376C289.463 20.4987 289.308 20.6743 289.228 20.9028L289.222 20.9282H287.73L287.736 20.8711C287.787 20.4818 287.939 20.1411 288.193 19.8491C288.447 19.5571 288.784 19.3307 289.203 19.1699C289.622 19.0091 290.104 18.9287 290.65 18.9287C291.251 18.9287 291.759 19.0218 292.173 19.208C292.588 19.39 292.903 19.6566 293.119 20.0078C293.335 20.3548 293.443 20.7716 293.443 21.2583V26H291.881V25.0479H291.773C291.646 25.2679 291.481 25.4583 291.278 25.6191C291.079 25.7799 290.851 25.9027 290.593 25.9873C290.335 26.0719 290.051 26.1143 289.742 26.1143ZM295.341 26V19.062H296.921V20.1284H297.029C297.194 19.7518 297.444 19.4577 297.778 19.2461C298.113 19.0345 298.529 18.9287 299.029 18.9287C299.803 18.9287 300.396 19.153 300.806 19.6016C301.217 20.0501 301.422 20.687 301.422 21.5122V26H299.841V21.8804C299.841 21.3387 299.727 20.9325 299.499 20.6616C299.274 20.3908 298.923 20.2554 298.445 20.2554C298.132 20.2554 297.861 20.3252 297.632 20.4648C297.404 20.6045 297.228 20.8013 297.105 21.0552C296.983 21.3091 296.921 21.6095 296.921 21.9565V26H295.341ZM306.271 28.4375C305.662 28.4375 305.135 28.3571 304.691 28.1963C304.251 28.0355 303.904 27.807 303.65 27.5107C303.396 27.2188 303.242 26.8781 303.187 26.4888L303.193 26.4697H304.767L304.78 26.4888C304.831 26.7088 304.985 26.8887 305.243 27.0283C305.506 27.1722 305.857 27.2441 306.297 27.2441C306.839 27.2441 307.257 27.1235 307.554 26.8823C307.854 26.6411 308.004 26.2983 308.004 25.854V24.521H307.896C307.765 24.7707 307.594 24.9823 307.382 25.1558C307.175 25.3293 306.936 25.4604 306.665 25.5493C306.398 25.634 306.104 25.6763 305.783 25.6763C305.199 25.6763 304.693 25.5366 304.266 25.2573C303.838 24.9738 303.508 24.5824 303.275 24.083C303.047 23.5837 302.933 23.006 302.933 22.3501V22.3374C302.933 21.6688 303.049 21.0806 303.282 20.5728C303.514 20.0649 303.845 19.6672 304.272 19.3794C304.704 19.0916 305.218 18.9478 305.814 18.9478C306.136 18.9478 306.43 18.9985 306.697 19.1001C306.968 19.2017 307.205 19.3455 307.408 19.5317C307.615 19.7179 307.784 19.9422 307.916 20.2046H307.998V19.062H309.579V25.8286C309.579 26.3618 309.443 26.8231 309.172 27.2124C308.906 27.606 308.525 27.9085 308.03 28.1201C307.535 28.3317 306.949 28.4375 306.271 28.4375ZM306.271 24.4194C306.635 24.4194 306.949 24.3327 307.211 24.1592C307.473 23.9814 307.674 23.7381 307.814 23.4292C307.958 23.1203 308.03 22.7606 308.03 22.3501V22.3374C308.03 21.9269 307.958 21.5672 307.814 21.2583C307.674 20.9451 307.473 20.7018 307.211 20.5283C306.949 20.3506 306.635 20.2617 306.271 20.2617C305.903 20.2617 305.59 20.3506 305.332 20.5283C305.078 20.7018 304.883 20.9451 304.748 21.2583C304.617 21.5672 304.551 21.9269 304.551 22.3374V22.3501C304.551 22.7563 304.617 23.116 304.748 23.4292C304.883 23.7381 305.078 23.9814 305.332 24.1592C305.59 24.3327 305.903 24.4194 306.271 24.4194ZM314.485 26.1396C313.796 26.1396 313.203 25.9937 312.708 25.7017C312.217 25.4097 311.838 24.995 311.572 24.4575C311.305 23.9201 311.172 23.2832 311.172 22.5469V22.5405C311.172 21.8127 311.303 21.1779 311.565 20.6362C311.832 20.0946 312.209 19.6756 312.695 19.3794C313.182 19.0789 313.753 18.9287 314.409 18.9287C315.069 18.9287 315.636 19.0747 316.11 19.3667C316.589 19.6545 316.957 20.0586 317.215 20.5791C317.473 21.0996 317.602 21.709 317.602 22.4072V22.9277H311.965V21.8677H316.828L316.079 22.8579V22.2295C316.079 21.7682 316.009 21.3853 315.869 21.0806C315.729 20.7759 315.535 20.5474 315.285 20.395C315.04 20.2427 314.754 20.1665 314.428 20.1665C314.102 20.1665 313.812 20.2469 313.559 20.4077C313.309 20.5643 313.11 20.797 312.962 21.106C312.818 21.4106 312.746 21.7852 312.746 22.2295V22.8643C312.746 23.2917 312.818 23.6577 312.962 23.9624C313.106 24.2629 313.309 24.4956 313.571 24.6606C313.838 24.8215 314.153 24.9019 314.517 24.9019C314.801 24.9019 315.044 24.8617 315.247 24.7812C315.454 24.6966 315.622 24.5972 315.749 24.4829C315.875 24.3644 315.964 24.2523 316.015 24.1465L316.034 24.1021H317.532L317.52 24.1592C317.465 24.3835 317.363 24.612 317.215 24.8447C317.071 25.0732 316.874 25.2869 316.625 25.4858C316.379 25.6805 316.079 25.8392 315.723 25.9619C315.368 26.0804 314.955 26.1396 314.485 26.1396Z" fill="#8C4B02"/>
<path d="M382.31 26.2285C381.599 26.2285 380.981 26.1185 380.457 25.8984C379.936 25.6784 379.526 25.3716 379.225 24.978C378.925 24.5845 378.755 24.1253 378.717 23.6006L378.711 23.5117H380.298L380.304 23.5752C380.33 23.8333 380.431 24.0576 380.609 24.248C380.791 24.4385 381.032 24.5887 381.333 24.6987C381.633 24.8045 381.976 24.8574 382.361 24.8574C382.729 24.8574 383.055 24.8003 383.338 24.686C383.622 24.5718 383.844 24.4152 384.005 24.2163C384.166 24.0132 384.246 23.7804 384.246 23.5181V23.5117C384.246 23.1816 384.117 22.9129 383.859 22.7056C383.601 22.494 383.175 22.3247 382.583 22.1978L381.599 21.9946C380.66 21.7957 379.976 21.4784 379.549 21.0425C379.126 20.6024 378.914 20.0417 378.914 19.3604V19.354C378.914 18.8081 379.058 18.3299 379.346 17.9194C379.638 17.509 380.038 17.1895 380.545 16.9609C381.057 16.7282 381.644 16.6118 382.304 16.6118C382.981 16.6118 383.567 16.7261 384.062 16.9546C384.557 17.1789 384.946 17.4857 385.23 17.875C385.514 18.2643 385.672 18.7044 385.706 19.1953L385.712 19.2778H384.151L384.138 19.2017C384.1 18.9604 384.001 18.751 383.84 18.5732C383.683 18.3913 383.474 18.2474 383.211 18.1416C382.949 18.0358 382.642 17.9829 382.291 17.9829C381.957 17.9829 381.658 18.0358 381.396 18.1416C381.134 18.2432 380.926 18.387 380.774 18.5732C380.626 18.7594 380.552 18.9837 380.552 19.2461V19.2524C380.552 19.5741 380.677 19.8407 380.926 20.0522C381.18 20.2638 381.593 20.4289 382.164 20.5474L383.148 20.7568C383.791 20.8923 384.314 21.0721 384.716 21.2964C385.118 21.5207 385.412 21.8 385.598 22.1343C385.789 22.4644 385.884 22.8621 385.884 23.3276V23.334C385.884 23.9264 385.738 24.4385 385.446 24.8701C385.158 25.3018 384.745 25.6361 384.208 25.873C383.675 26.11 383.042 26.2285 382.31 26.2285ZM387.623 26V16.377H389.204V20.1284H389.312C389.477 19.7518 389.726 19.4577 390.061 19.2461C390.395 19.0345 390.812 18.9287 391.311 18.9287C391.827 18.9287 392.263 19.0303 392.619 19.2334C392.974 19.4323 393.243 19.7243 393.425 20.1094C393.611 20.4945 393.704 20.9621 393.704 21.5122V26H392.124V21.8804C392.124 21.3387 392.009 20.9325 391.781 20.6616C391.556 20.3908 391.205 20.2554 390.727 20.2554C390.414 20.2554 390.143 20.3252 389.915 20.4648C389.686 20.6045 389.51 20.8013 389.388 21.0552C389.265 21.3091 389.204 21.6095 389.204 21.9565V26H387.623ZM398.566 26.1396C397.877 26.1396 397.282 25.9958 396.783 25.708C396.283 25.416 395.898 25.0013 395.627 24.4639C395.361 23.9264 395.228 23.2832 395.228 22.5342V22.5215C395.228 21.7809 395.363 21.1419 395.634 20.6045C395.905 20.0628 396.288 19.6481 396.783 19.3604C397.282 19.0726 397.877 18.9287 398.566 18.9287C399.256 18.9287 399.849 19.0726 400.344 19.3604C400.843 19.6481 401.228 20.0607 401.499 20.5981C401.77 21.1356 401.905 21.7767 401.905 22.5215V22.5342C401.905 23.2832 401.77 23.9264 401.499 24.4639C401.232 25.0013 400.849 25.416 400.35 25.708C399.855 25.9958 399.26 26.1396 398.566 26.1396ZM398.566 24.8574C398.93 24.8574 399.239 24.7664 399.493 24.5845C399.751 24.3983 399.948 24.1338 400.083 23.791C400.219 23.444 400.287 23.0272 400.287 22.5405V22.5278C400.287 22.0369 400.219 21.6201 400.083 21.2773C399.948 20.9303 399.751 20.6659 399.493 20.4839C399.239 20.2977 398.93 20.2046 398.566 20.2046C398.202 20.2046 397.891 20.2977 397.633 20.4839C397.375 20.6659 397.178 20.9303 397.043 21.2773C396.908 21.6201 396.84 22.0369 396.84 22.5278V22.5405C396.84 23.0272 396.908 23.444 397.043 23.791C397.178 24.138 397.373 24.4025 397.627 24.5845C397.885 24.7664 398.198 24.8574 398.566 24.8574ZM404.54 26L402.654 19.062H404.241L405.39 24.2798H405.504L406.837 19.062H408.342L409.681 24.2798H409.795L410.944 19.062H412.512L410.627 26H408.977L407.625 20.9727H407.517L406.171 26H404.54ZM417.362 26V19.062H418.936V26H417.362ZM418.155 17.9004C417.897 17.9004 417.675 17.8094 417.489 17.6274C417.303 17.4455 417.209 17.2275 417.209 16.9736C417.209 16.7113 417.303 16.4912 417.489 16.3135C417.675 16.1315 417.897 16.0405 418.155 16.0405C418.413 16.0405 418.633 16.1315 418.815 16.3135C419.002 16.4912 419.095 16.7113 419.095 16.9736C419.095 17.2275 419.002 17.4455 418.815 17.6274C418.633 17.8094 418.413 17.9004 418.155 17.9004ZM420.885 26V19.062H422.465V20.1411H422.573C422.721 19.756 422.96 19.4577 423.291 19.2461C423.625 19.0345 424.021 18.9287 424.478 18.9287C424.791 18.9287 425.072 18.9795 425.322 19.0811C425.576 19.1826 425.794 19.3265 425.976 19.5127C426.158 19.6989 426.297 19.9211 426.395 20.1792H426.509C426.623 19.9295 426.782 19.7116 426.985 19.5254C427.192 19.335 427.433 19.189 427.708 19.0874C427.988 18.9816 428.288 18.9287 428.61 18.9287C429.075 18.9287 429.473 19.0218 429.803 19.208C430.138 19.39 430.394 19.6523 430.571 19.9951C430.753 20.3379 430.844 20.7484 430.844 21.2266V26H429.264V21.6138C429.264 21.3091 429.217 21.0573 429.124 20.8584C429.035 20.6595 428.898 20.5093 428.711 20.4077C428.525 20.3062 428.29 20.2554 428.007 20.2554C427.732 20.2554 427.493 20.3188 427.29 20.4458C427.086 20.5685 426.928 20.7357 426.813 20.9473C426.703 21.1589 426.648 21.3979 426.648 21.6646V26H425.068V21.4995C425.068 21.2414 425.017 21.0192 424.916 20.833C424.818 20.6468 424.674 20.505 424.484 20.4077C424.298 20.3062 424.076 20.2554 423.817 20.2554C423.559 20.2554 423.326 20.3231 423.119 20.4585C422.916 20.5897 422.755 20.7716 422.637 21.0044C422.522 21.2329 422.465 21.491 422.465 21.7788V26H420.885ZM432.704 28.3042V19.062H434.285V20.1475H434.393C434.52 19.8978 434.685 19.6841 434.888 19.5063C435.095 19.3286 435.334 19.1911 435.605 19.0938C435.876 18.9964 436.174 18.9478 436.5 18.9478C437.08 18.9478 437.581 19.0938 438.004 19.3857C438.432 19.6777 438.762 20.0924 438.995 20.6299C439.232 21.1631 439.35 21.7957 439.35 22.5278V22.5405C439.35 23.2769 439.234 23.9116 439.001 24.4448C438.768 24.978 438.438 25.3906 438.011 25.6826C437.588 25.9704 437.084 26.1143 436.5 26.1143C436.183 26.1143 435.886 26.0656 435.611 25.9683C435.336 25.8667 435.095 25.7249 434.888 25.543C434.68 25.361 434.515 25.1452 434.393 24.8955H434.285V28.3042H432.704ZM436.005 24.7812C436.365 24.7812 436.674 24.6924 436.932 24.5146C437.19 24.3327 437.389 24.0745 437.528 23.7402C437.668 23.4017 437.738 23.0018 437.738 22.5405V22.5278C437.738 22.0581 437.668 21.6561 437.528 21.3218C437.389 20.9875 437.19 20.7314 436.932 20.5537C436.674 20.3717 436.365 20.2808 436.005 20.2808C435.645 20.2808 435.334 20.3717 435.072 20.5537C434.814 20.7314 434.613 20.9875 434.469 21.3218C434.329 21.6561 434.259 22.056 434.259 22.5215V22.5342C434.259 22.9997 434.329 23.4017 434.469 23.7402C434.613 24.0745 434.816 24.3327 435.078 24.5146C435.34 24.6924 435.649 24.7812 436.005 24.7812ZM442.835 26.1143C442.399 26.1143 442.008 26.0296 441.661 25.8604C441.318 25.6911 441.047 25.452 440.848 25.1431C440.653 24.8299 440.556 24.4618 440.556 24.0386V24.0259C440.556 23.6154 440.658 23.262 440.861 22.9658C441.064 22.6654 441.362 22.4305 441.756 22.2612C442.149 22.092 442.628 21.9925 443.19 21.9629L445.755 21.8042V22.8452L443.413 22.9976C442.968 23.0229 442.64 23.116 442.429 23.2769C442.217 23.4377 442.111 23.6619 442.111 23.9497V23.9624C442.111 24.2586 442.223 24.4893 442.448 24.6543C442.676 24.8193 442.966 24.9019 443.317 24.9019C443.635 24.9019 443.918 24.8384 444.168 24.7114C444.418 24.5845 444.614 24.4131 444.758 24.1973C444.902 23.9772 444.974 23.7297 444.974 23.4546V21.2583C444.974 20.9113 444.864 20.6468 444.644 20.4648C444.424 20.2786 444.098 20.1855 443.667 20.1855C443.307 20.1855 443.013 20.249 442.784 20.376C442.556 20.4987 442.401 20.6743 442.321 20.9028L442.314 20.9282H440.823L440.829 20.8711C440.88 20.4818 441.032 20.1411 441.286 19.8491C441.54 19.5571 441.876 19.3307 442.295 19.1699C442.714 19.0091 443.197 18.9287 443.743 18.9287C444.344 18.9287 444.851 19.0218 445.266 19.208C445.681 19.39 445.996 19.6566 446.212 20.0078C446.428 20.3548 446.536 20.7716 446.536 21.2583V26H444.974V25.0479H444.866C444.739 25.2679 444.574 25.4583 444.371 25.6191C444.172 25.7799 443.944 25.9027 443.686 25.9873C443.427 26.0719 443.144 26.1143 442.835 26.1143ZM451.411 26.1396C450.712 26.1396 450.116 25.9958 449.621 25.708C449.125 25.4202 448.747 25.0055 448.484 24.4639C448.222 23.9222 448.091 23.2747 448.091 22.5215V22.5088C448.091 21.7598 448.222 21.1187 448.484 20.5854C448.747 20.0522 449.125 19.6439 449.621 19.3604C450.116 19.0726 450.71 18.9287 451.404 18.9287C452.001 18.9287 452.513 19.0324 452.94 19.2397C453.372 19.4429 453.713 19.7264 453.962 20.0903C454.216 20.45 454.373 20.8711 454.432 21.3535V21.3789H452.94L452.934 21.3599C452.862 21.0213 452.697 20.7441 452.439 20.5283C452.185 20.3125 451.842 20.2046 451.411 20.2046C451.051 20.2046 450.742 20.2956 450.484 20.4775C450.23 20.6595 450.035 20.9219 449.9 21.2646C449.764 21.6074 449.697 22.0221 449.697 22.5088V22.5215C449.697 23.0124 449.764 23.4334 449.9 23.7847C450.04 24.1317 450.236 24.3983 450.49 24.5845C450.744 24.7664 451.051 24.8574 451.411 24.8574C451.821 24.8574 452.151 24.7643 452.401 24.5781C452.655 24.3919 452.83 24.1169 452.928 23.7529L452.94 23.7275L454.426 23.7212L454.419 23.7783C454.343 24.248 454.178 24.6606 453.924 25.0161C453.675 25.3716 453.34 25.6488 452.921 25.8477C452.502 26.0423 451.999 26.1396 451.411 26.1396ZM458.755 26.0317C457.959 26.0317 457.386 25.8857 457.035 25.5938C456.683 25.3018 456.508 24.8236 456.508 24.1592V20.2871H455.429V19.062H456.508V17.3608H458.114V19.062H459.574V20.2871H458.114V23.7847C458.114 24.1274 458.186 24.3792 458.33 24.54C458.478 24.6966 458.715 24.7749 459.041 24.7749C459.155 24.7749 459.248 24.7728 459.32 24.7686C459.396 24.7601 459.481 24.7516 459.574 24.7432V25.9619C459.464 25.9831 459.337 26 459.193 26.0127C459.053 26.0254 458.907 26.0317 458.755 26.0317ZM464.062 26.1396C463.372 26.1396 462.779 25.9937 462.284 25.7017C461.793 25.4097 461.415 24.995 461.148 24.4575C460.881 23.9201 460.748 23.2832 460.748 22.5469V22.5405C460.748 21.8127 460.879 21.1779 461.142 20.6362C461.408 20.0946 461.785 19.6756 462.271 19.3794C462.758 19.0789 463.329 18.9287 463.985 18.9287C464.646 18.9287 465.213 19.0747 465.687 19.3667C466.165 19.6545 466.533 20.0586 466.791 20.5791C467.049 21.0996 467.178 21.709 467.178 22.4072V22.9277H461.542V21.8677H466.404L465.655 22.8579V22.2295C465.655 21.7682 465.585 21.3853 465.445 21.0806C465.306 20.7759 465.111 20.5474 464.861 20.395C464.616 20.2427 464.33 20.1665 464.004 20.1665C463.679 20.1665 463.389 20.2469 463.135 20.4077C462.885 20.5643 462.686 20.797 462.538 21.106C462.394 21.4106 462.322 21.7852 462.322 22.2295V22.8643C462.322 23.2917 462.394 23.6577 462.538 23.9624C462.682 24.2629 462.885 24.4956 463.147 24.6606C463.414 24.8215 463.729 24.9019 464.093 24.9019C464.377 24.9019 464.62 24.8617 464.823 24.7812C465.031 24.6966 465.198 24.5972 465.325 24.4829C465.452 24.3644 465.541 24.2523 465.591 24.1465L465.61 24.1021H467.108L467.096 24.1592C467.041 24.3835 466.939 24.612 466.791 24.8447C466.647 25.0732 466.45 25.2869 466.201 25.4858C465.955 25.6805 465.655 25.8392 465.299 25.9619C464.944 26.0804 464.531 26.1396 464.062 26.1396ZM471.26 26.1143C470.684 26.1143 470.183 25.9704 469.755 25.6826C469.328 25.3906 468.998 24.9759 468.765 24.4385C468.532 23.901 468.416 23.2684 468.416 22.5405V22.5278C468.416 21.7915 468.53 21.1567 468.759 20.6235C468.992 20.0861 469.319 19.6735 469.743 19.3857C470.17 19.0938 470.676 18.9478 471.26 18.9478C471.577 18.9478 471.873 18.9985 472.148 19.1001C472.424 19.1974 472.665 19.3371 472.872 19.519C473.084 19.701 473.249 19.9168 473.367 20.1665H473.481V16.377H475.056V26H473.481V24.9146H473.367C473.24 25.1642 473.073 25.38 472.866 25.562C472.663 25.7397 472.426 25.8773 472.155 25.9746C471.884 26.0677 471.586 26.1143 471.26 26.1143ZM471.755 24.7812C472.115 24.7812 472.424 24.6924 472.682 24.5146C472.944 24.3327 473.145 24.0745 473.285 23.7402C473.429 23.4017 473.5 23.0018 473.5 22.5405V22.5278C473.5 22.0623 473.429 21.6624 473.285 21.3281C473.145 20.9938 472.944 20.7357 472.682 20.5537C472.424 20.3717 472.115 20.2808 471.755 20.2808C471.399 20.2808 471.09 20.3717 470.828 20.5537C470.57 20.7314 470.371 20.9896 470.231 21.3281C470.092 21.6624 470.022 22.0623 470.022 22.5278V22.5405C470.022 23.006 470.092 23.4059 470.231 23.7402C470.371 24.0745 470.57 24.3327 470.828 24.5146C471.086 24.6924 471.395 24.7812 471.755 24.7812ZM480.515 26V19.062H482.095V20.1411H482.203C482.351 19.756 482.59 19.4577 482.92 19.2461C483.255 19.0345 483.65 18.9287 484.107 18.9287C484.421 18.9287 484.702 18.9795 484.952 19.0811C485.206 19.1826 485.424 19.3265 485.605 19.5127C485.787 19.6989 485.927 19.9211 486.024 20.1792H486.139C486.253 19.9295 486.412 19.7116 486.615 19.5254C486.822 19.335 487.063 19.189 487.338 19.0874C487.618 18.9816 487.918 18.9287 488.24 18.9287C488.705 18.9287 489.103 19.0218 489.433 19.208C489.767 19.39 490.023 19.6523 490.201 19.9951C490.383 20.3379 490.474 20.7484 490.474 21.2266V26H488.894V21.6138C488.894 21.3091 488.847 21.0573 488.754 20.8584C488.665 20.6595 488.528 20.5093 488.341 20.4077C488.155 20.3062 487.92 20.2554 487.637 20.2554C487.362 20.2554 487.123 20.3188 486.919 20.4458C486.716 20.5685 486.558 20.7357 486.443 20.9473C486.333 21.1589 486.278 21.3979 486.278 21.6646V26H484.698V21.4995C484.698 21.2414 484.647 21.0192 484.545 20.833C484.448 20.6468 484.304 20.505 484.114 20.4077C483.928 20.3062 483.705 20.2554 483.447 20.2554C483.189 20.2554 482.956 20.3231 482.749 20.4585C482.546 20.5897 482.385 20.7716 482.267 21.0044C482.152 21.2329 482.095 21.491 482.095 21.7788V26H480.515ZM495.305 26.1396C494.615 26.1396 494.022 25.9937 493.527 25.7017C493.036 25.4097 492.658 24.995 492.391 24.4575C492.125 23.9201 491.991 23.2832 491.991 22.5469V22.5405C491.991 21.8127 492.122 21.1779 492.385 20.6362C492.651 20.0946 493.028 19.6756 493.515 19.3794C494.001 19.0789 494.573 18.9287 495.229 18.9287C495.889 18.9287 496.456 19.0747 496.93 19.3667C497.408 19.6545 497.776 20.0586 498.034 20.5791C498.292 21.0996 498.421 21.709 498.421 22.4072V22.9277H492.785V21.8677H497.647L496.898 22.8579V22.2295C496.898 21.7682 496.828 21.3853 496.688 21.0806C496.549 20.7759 496.354 20.5474 496.104 20.395C495.859 20.2427 495.573 20.1665 495.248 20.1665C494.922 20.1665 494.632 20.2469 494.378 20.4077C494.128 20.5643 493.929 20.797 493.781 21.106C493.637 21.4106 493.565 21.7852 493.565 22.2295V22.8643C493.565 23.2917 493.637 23.6577 493.781 23.9624C493.925 24.2629 494.128 24.4956 494.391 24.6606C494.657 24.8215 494.972 24.9019 495.336 24.9019C495.62 24.9019 495.863 24.8617 496.066 24.7812C496.274 24.6966 496.441 24.5972 496.568 24.4829C496.695 24.3644 496.784 24.2523 496.834 24.1465L496.854 24.1021H498.352L498.339 24.1592C498.284 24.3835 498.182 24.612 498.034 24.8447C497.89 25.0732 497.694 25.2869 497.444 25.4858C497.198 25.6805 496.898 25.8392 496.542 25.9619C496.187 26.0804 495.774 26.1396 495.305 26.1396ZM501.894 26.1143C501.458 26.1143 501.066 26.0296 500.719 25.8604C500.376 25.6911 500.106 25.452 499.907 25.1431C499.712 24.8299 499.615 24.4618 499.615 24.0386V24.0259C499.615 23.6154 499.716 23.262 499.919 22.9658C500.123 22.6654 500.421 22.4305 500.814 22.2612C501.208 22.092 501.686 21.9925 502.249 21.9629L504.813 21.8042V22.8452L502.471 22.9976C502.027 23.0229 501.699 23.116 501.487 23.2769C501.276 23.4377 501.17 23.6619 501.17 23.9497V23.9624C501.17 24.2586 501.282 24.4893 501.506 24.6543C501.735 24.8193 502.025 24.9019 502.376 24.9019C502.693 24.9019 502.977 24.8384 503.227 24.7114C503.476 24.5845 503.673 24.4131 503.817 24.1973C503.961 23.9772 504.033 23.7297 504.033 23.4546V21.2583C504.033 20.9113 503.923 20.6468 503.703 20.4648C503.483 20.2786 503.157 20.1855 502.725 20.1855C502.365 20.1855 502.071 20.249 501.843 20.376C501.614 20.4987 501.46 20.6743 501.379 20.9028L501.373 20.9282H499.881L499.888 20.8711C499.938 20.4818 500.091 20.1411 500.345 19.8491C500.599 19.5571 500.935 19.3307 501.354 19.1699C501.773 19.0091 502.255 18.9287 502.801 18.9287C503.402 18.9287 503.91 19.0218 504.325 19.208C504.739 19.39 505.055 19.6566 505.271 20.0078C505.486 20.3548 505.594 20.7716 505.594 21.2583V26H504.033V25.0479H503.925C503.798 25.2679 503.633 25.4583 503.43 25.6191C503.231 25.7799 503.002 25.9027 502.744 25.9873C502.486 26.0719 502.202 26.1143 501.894 26.1143ZM510.114 26.1396C509.526 26.1396 509.018 26.0571 508.59 25.8921C508.167 25.7228 507.833 25.4901 507.587 25.1938C507.342 24.8934 507.196 24.5464 507.149 24.1528V24.1401H508.717L508.724 24.1528C508.808 24.394 508.967 24.5908 509.2 24.7432C509.432 24.8955 509.746 24.9717 510.139 24.9717C510.402 24.9717 510.632 24.9357 510.831 24.8638C511.03 24.7876 511.187 24.6839 511.301 24.5527C511.415 24.4215 511.472 24.2692 511.472 24.0957V24.083C511.472 23.8799 511.39 23.7106 511.225 23.5752C511.06 23.4355 510.787 23.3234 510.406 23.2388L509.282 22.9849C508.842 22.8875 508.478 22.7521 508.19 22.5786C507.903 22.4051 507.687 22.1914 507.543 21.9375C507.403 21.6836 507.333 21.3874 507.333 21.0488V21.0425C507.333 20.6235 507.45 20.2554 507.683 19.938C507.92 19.6206 508.248 19.373 508.667 19.1953C509.085 19.0176 509.568 18.9287 510.114 18.9287C510.677 18.9287 511.161 19.0133 511.567 19.1826C511.974 19.3519 512.291 19.5846 512.52 19.8809C512.748 20.1771 512.879 20.5135 512.913 20.8901V20.9028H511.428L511.421 20.8838C511.362 20.6637 511.22 20.4775 510.996 20.3252C510.776 20.1686 510.48 20.0903 510.107 20.0903C509.875 20.0903 509.665 20.1263 509.479 20.1982C509.297 20.2702 509.153 20.3717 509.047 20.5029C508.946 20.6299 508.895 20.7801 508.895 20.9536V20.96C508.895 21.0954 508.929 21.2139 508.997 21.3154C509.069 21.417 509.181 21.5059 509.333 21.582C509.485 21.6582 509.686 21.7259 509.936 21.7852L511.06 22.0327C511.741 22.1851 512.244 22.4115 512.57 22.7119C512.896 23.0124 513.059 23.4165 513.059 23.9243V23.937C513.059 24.3771 512.932 24.7622 512.678 25.0923C512.424 25.4224 512.075 25.6805 511.631 25.8667C511.187 26.0487 510.681 26.1396 510.114 26.1396ZM516.95 26.1396C516.434 26.1396 516 26.0402 515.649 25.8413C515.298 25.6382 515.033 25.3441 514.855 24.959C514.678 24.5697 514.589 24.0999 514.589 23.5498V19.062H516.169V23.188C516.169 23.7254 516.275 24.1296 516.487 24.4004C516.698 24.6712 517.043 24.8066 517.521 24.8066C517.775 24.8066 518 24.7686 518.194 24.6924C518.393 24.612 518.558 24.4977 518.689 24.3496C518.821 24.2015 518.92 24.0238 518.988 23.8164C519.056 23.6048 519.089 23.3678 519.089 23.1055V19.062H520.67V26H519.089V24.9463H518.981C518.876 25.1917 518.728 25.4054 518.537 25.5874C518.347 25.7651 518.118 25.9027 517.852 26C517.585 26.0931 517.285 26.1396 516.95 26.1396ZM522.6 26V19.062H524.18V20.1284H524.288C524.407 19.756 524.618 19.4661 524.923 19.2588C525.232 19.0514 525.615 18.9478 526.072 18.9478C526.19 18.9478 526.307 18.9562 526.421 18.9731C526.539 18.9858 526.637 19.0028 526.713 19.0239V20.4395C526.586 20.4098 526.457 20.3887 526.326 20.376C526.199 20.359 526.065 20.3506 525.926 20.3506C525.575 20.3506 525.268 20.4162 525.005 20.5474C524.743 20.6785 524.54 20.8669 524.396 21.1123C524.252 21.3535 524.18 21.6392 524.18 21.9692V26H522.6ZM530.801 26.1396C530.111 26.1396 529.519 25.9937 529.023 25.7017C528.533 25.4097 528.154 24.995 527.887 24.4575C527.621 23.9201 527.487 23.2832 527.487 22.5469V22.5405C527.487 21.8127 527.618 21.1779 527.881 20.6362C528.147 20.0946 528.524 19.6756 529.011 19.3794C529.497 19.0789 530.069 18.9287 530.725 18.9287C531.385 18.9287 531.952 19.0747 532.426 19.3667C532.904 19.6545 533.272 20.0586 533.53 20.5791C533.788 21.0996 533.917 21.709 533.917 22.4072V22.9277H528.281V21.8677H533.143L532.394 22.8579V22.2295C532.394 21.7682 532.324 21.3853 532.185 21.0806C532.045 20.7759 531.85 20.5474 531.601 20.395C531.355 20.2427 531.069 20.1665 530.744 20.1665C530.418 20.1665 530.128 20.2469 529.874 20.4077C529.624 20.5643 529.425 20.797 529.277 21.106C529.133 21.4106 529.062 21.7852 529.062 22.2295V22.8643C529.062 23.2917 529.133 23.6577 529.277 23.9624C529.421 24.2629 529.624 24.4956 529.887 24.6606C530.153 24.8215 530.469 24.9019 530.833 24.9019C531.116 24.9019 531.359 24.8617 531.562 24.7812C531.77 24.6966 531.937 24.5972 532.064 24.4829C532.191 24.3644 532.28 24.2523 532.331 24.1465L532.35 24.1021H533.848L533.835 24.1592C533.78 24.3835 533.678 24.612 533.53 24.8447C533.386 25.0732 533.19 25.2869 532.94 25.4858C532.694 25.6805 532.394 25.8392 532.039 25.9619C531.683 26.0804 531.271 26.1396 530.801 26.1396ZM538.12 26.1396C537.531 26.1396 537.024 26.0571 536.596 25.8921C536.173 25.7228 535.839 25.4901 535.593 25.1938C535.348 24.8934 535.202 24.5464 535.155 24.1528V24.1401H536.723L536.729 24.1528C536.814 24.394 536.973 24.5908 537.206 24.7432C537.438 24.8955 537.751 24.9717 538.145 24.9717C538.407 24.9717 538.638 24.9357 538.837 24.8638C539.036 24.7876 539.192 24.6839 539.307 24.5527C539.421 24.4215 539.478 24.2692 539.478 24.0957V24.083C539.478 23.8799 539.396 23.7106 539.23 23.5752C539.065 23.4355 538.792 23.3234 538.412 23.2388L537.288 22.9849C536.848 22.8875 536.484 22.7521 536.196 22.5786C535.909 22.4051 535.693 22.1914 535.549 21.9375C535.409 21.6836 535.339 21.3874 535.339 21.0488V21.0425C535.339 20.6235 535.456 20.2554 535.688 19.938C535.925 19.6206 536.253 19.373 536.672 19.1953C537.091 19.0176 537.574 18.9287 538.12 18.9287C538.682 18.9287 539.167 19.0133 539.573 19.1826C539.979 19.3519 540.297 19.5846 540.525 19.8809C540.754 20.1771 540.885 20.5135 540.919 20.8901V20.9028H539.434L539.427 20.8838C539.368 20.6637 539.226 20.4775 539.002 20.3252C538.782 20.1686 538.486 20.0903 538.113 20.0903C537.881 20.0903 537.671 20.1263 537.485 20.1982C537.303 20.2702 537.159 20.3717 537.053 20.5029C536.952 20.6299 536.901 20.7801 536.901 20.9536V20.96C536.901 21.0954 536.935 21.2139 537.002 21.3154C537.074 21.417 537.187 21.5059 537.339 21.582C537.491 21.6582 537.692 21.7259 537.942 21.7852L539.065 22.0327C539.747 22.1851 540.25 22.4115 540.576 22.7119C540.902 23.0124 541.065 23.4165 541.065 23.9243V23.937C541.065 24.3771 540.938 24.7622 540.684 25.0923C540.43 25.4224 540.081 25.6805 539.637 25.8667C539.192 26.0487 538.687 26.1396 538.12 26.1396Z" fill="#2E2E2E"/>
<g filter="url(#filter0_iii_2314_16239)">
<rect x="546" y="8" width="48" height="24" rx="12" fill="#066AFE"/>
<rect x="546.5" y="8.5" width="47" height="23" rx="11.5" stroke="#066AFE"/>
<circle cx="582" cy="20" r="10" fill="white"/>
<path fill-rule="evenodd" clip-rule="evenodd" d="M558.408 23.8081L554.6 19.9773C554.461 19.8389 554.461 19.6081 554.6 19.4696L555.108 18.9619C555.246 18.8235 555.477 18.8235 555.615 18.9619L558.477 21.8466C558.569 21.9389 558.731 21.9389 558.823 21.8466L564.431 16.1927C564.569 16.0543 564.8 16.0543 564.938 16.1927L565.446 16.7004C565.585 16.8389 565.585 17.0696 565.446 17.2081L558.915 23.8081C558.777 23.9696 558.546 23.9696 558.408 23.8081V23.8081Z" fill="white"/>
</g>
<defs>
<filter id="filter0_iii_2314_16239" x="546" y="8" width="50" height="26" filterUnits="userSpaceOnUse" color-interpolation-filters="sRGB">
<feFlood flood-opacity="0" result="BackgroundImageFix"/>
<feBlend mode="normal" in="SourceGraphic" in2="BackgroundImageFix" result="shape"/>
<feColorMatrix in="SourceAlpha" type="matrix" values="0 0 0 0 0 0 0 0 0 0 0 0 0 0 0 0 0 0 127 0" result="hardAlpha"/>
<feOffset dx="2" dy="2"/>
<feGaussianBlur stdDeviation="2.5"/>
<feComposite in2="hardAlpha" operator="arithmetic" k2="-1" k3="1"/>
<feColorMatrix type="matrix" values="0 0 0 0 0 0 0 0 0 0 0 0 0 0 0 0 0 0 0.1 0"/>
<feBlend mode="normal" in2="shape" result="effect1_innerShadow_2314_16239"/>
<feColorMatrix in="SourceAlpha" type="matrix" values="0 0 0 0 0 0 0 0 0 0 0 0 0 0 0 0 0 0 127 0" result="hardAlpha"/>
<feOffset dy="0.5"/>
<feGaussianBlur stdDeviation="1"/>
<feComposite in2="hardAlpha" operator="arithmetic" k2="-1" k3="1"/>
<feColorMatrix type="matrix" values="0 0 0 0 0 0 0 0 0 0 0 0 0 0 0 0 0 0 0.5 0"/>
<feBlend mode="normal" in2="effect1_innerShadow_2314_16239" result="effect2_innerShadow_2314_16239"/>
<feColorMatrix in="SourceAlpha" type="matrix" values="0 0 0 0 0 0 0 0 0 0 0 0 0 0 0 0 0 0 127 0" result="hardAlpha"/>
<feOffset dy="1"/>
<feComposite in2="hardAlpha" operator="arithmetic" k2="-1" k3="1"/>
<feColorMatrix type="matrix" values="0 0 0 0 0 0 0 0 0 0 0 0 0 0 0 0 0 0 0.25 0"/>
<feBlend mode="normal" in2="effect2_innerShadow_2314_16239" result="effect3_innerShadow_2314_16239"/>
</filter>
</defs>
</svg>
