<svg width="32" height="32" viewBox="0 0 32 32" fill="none" xmlns="http://www.w3.org/2000/svg">
<path fill-rule="evenodd" clip-rule="evenodd" d="M31.6308 26.1508L17.5384 3.3614C16.8 2.12953 15.2 2.12953 14.4615 3.3614L0.369217 26.1508C-0.492322 27.5675 0.369217 29.5385 1.90768 29.5385H30.0923C31.6308 29.5385 32.5538 27.5675 31.6308 26.1508ZM16 24.6104C14.9538 24.6104 14.1538 23.8097 14.1538 22.7626C14.1538 21.7155 14.9538 20.9148 16 20.9148C17.0461 20.9148 17.8461 21.7155 17.8461 22.7626C17.8461 23.8097 17.0461 24.6104 16 24.6104ZM17.8461 19.0674C17.8461 19.4369 17.6 19.6833 17.2307 19.6833H14.7692C14.4 19.6833 14.1538 19.4369 14.1538 19.0674V11.0603C14.1538 10.6907 14.4 10.4443 14.7692 10.4443H17.2307C17.6 10.4443 17.8461 10.6907 17.8461 11.0603V19.0674Z" fill="#CA8501"/>
</svg>
